<?xml version="1.0" encoding="UTF-8" standalone="no"?>
<!DOCTYPE svg PUBLIC "-//W3C//DTD SVG 1.1//EN" "http://www.w3.org/Graphics/SVG/1.1/DTD/svg11.dtd">
<svg width="100%" height="100%" viewBox="0 0 50 50" version="1.1" xmlns="http://www.w3.org/2000/svg" xmlns:xlink="http://www.w3.org/1999/xlink" xml:space="preserve" xmlns:serif="http://www.serif.com/" style="fill-rule:evenodd;clip-rule:evenodd;stroke-linejoin:round;stroke-miterlimit:2;">
    <g>
        <g transform="matrix(0.259061,0,0,0.259061,4.84464,29.7743)">
            <path d="M0,22.704L29.839,-19.745L59.677,57.159L0,22.704ZM-11.829,-46.542L-11.829,21.133C-11.829,29.017 -6.293,38.605 0.535,42.547L59.143,76.384C65.971,80.327 71.507,77.131 71.507,69.246L71.507,1.572C71.507,-6.313 65.971,-15.9 59.143,-19.843L0.535,-53.68C-6.293,-57.623 -11.829,-54.426 -11.829,-46.542" style="fill:rgb(255,178,0);fill-rule:nonzero;"/>
        </g>
        <g transform="matrix(0.259061,0,0,0.259061,8.30528,33.8089)">
            <path d="M0,3.74L27.925,19.863L13.962,-16.123L0,3.74Z" style="fill:rgb(255,178,0);fill-rule:nonzero;"/>
        </g>
        <g transform="matrix(0.259061,0,0,0.259061,37.4256,20.4182)">
            <path d="M0,59.496C5.753,56.175 10.417,48.097 10.417,41.454C10.417,36.737 8.06,34.026 4.636,34.031L4.636,-3.322L-4.637,2.031L-4.637,39.385C-8.06,43.332 -10.417,48.765 -10.417,53.482C-10.417,60.125 -5.754,62.818 0,59.496" style="fill:rgb(255,0,65);fill-rule:nonzero;"/>
        </g>
        <g transform="matrix(0.259061,0,0,0.259061,45.017,49.5625)">
            <path d="M0,-130.064L-16.935,-120.287L-16.935,-98.603C-8.214,-98.187 -2.479,-90.493 -3.35,-77.522C-4.379,-62.189 -14.858,-44.279 -27.639,-35.982C-42.776,-26.156 -55.347,-32.752 -55.347,-49.997C-55.347,-61.429 -49.81,-74.543 -41.674,-84.325L-41.674,-106.004L-58.607,-96.227C-65.437,-92.285 -70.972,-82.697 -70.972,-74.812L-70.972,-7.138C-70.972,0.746 -65.437,3.942 -58.607,0L0,-33.837C6.828,-37.779 12.363,-47.367 12.363,-55.251L12.363,-122.926C12.363,-130.811 6.828,-134.006 0,-130.064" style="fill:rgb(255,0,65);fill-rule:nonzero;"/>
        </g>
        <g transform="matrix(0.259061,0,0,0.259061,22.3016,17.4465)">
            <path d="M0,-29.427C-5.754,-26.105 -5.754,-20.72 -0.001,-17.399C4.085,-15.04 9.968,-14.365 15.098,-15.356L47.447,3.321L56.721,-2.033L24.371,-20.71C26.087,-23.672 24.918,-27.069 20.833,-29.427C15.08,-32.748 5.753,-32.748 0,-29.427" style="fill:rgb(255,0,65);fill-rule:nonzero;"/>
        </g>
        <g transform="matrix(0.259061,0,0,0.259061,28.2031,0.765751)">
            <path d="M0,81.952L16.935,72.175L-1.845,61.333C-15.287,63.642 -30.553,61.451 -40.48,54.714C-52.215,46.75 -52.005,34.77 -40.02,26.932C-25.823,17.649 -1.256,17.319 13.679,25.941C23.579,31.658 26.631,39.813 22.898,47.053L41.673,57.892L58.607,48.115C65.436,44.172 65.436,37.781 58.607,33.838L0,0.001C-6.828,-3.941 -17.899,-3.942 -24.728,0.001L-83.336,33.838C-90.164,37.781 -90.164,44.173 -83.336,48.115L-24.728,81.952C-17.899,85.894 -6.828,85.894 0,81.952" style="fill:rgb(255,0,65);fill-rule:nonzero;"/>
        </g>
    </g>
</svg>
