<?xml version="1.0" encoding="UTF-8" standalone="no"?>
<!DOCTYPE svg PUBLIC "-//W3C//DTD SVG 1.1//EN" "http://www.w3.org/Graphics/SVG/1.1/DTD/svg11.dtd">
<svg width="100%" height="100%" viewBox="0 0 50 50" version="1.1" xmlns="http://www.w3.org/2000/svg" xmlns:xlink="http://www.w3.org/1999/xlink" xml:space="preserve" xmlns:serif="http://www.serif.com/" style="fill-rule:evenodd;clip-rule:evenodd;stroke-linecap:round;stroke-linejoin:round;">
    <g id="Layer-1" serif:id="Layer 1" transform="matrix(1,0,0,1,-487,-559.72)">
        <g id="ears" transform="matrix(0.0530692,0,0,0.0530692,484.829,554.469)">
            <path d="M716.856,362.965C732.147,341.597 752.218,321.856 773.366,309.647C840.03,271.163 910.392,276.426 943.446,332.078C976.541,387.799 958.432,449.566 895.802,491.933C863.846,511.201 832.869,522.856 798.573,527.477M307.144,362.965C291.853,341.597 271.782,321.856 250.634,309.647C183.971,271.163 113.608,276.426 80.554,332.078C47.459,387.799 65.568,449.566 128.198,491.933C160.154,511.201 191.131,522.856 225.427,527.477" style="fill:white;fill-rule:nonzero;stroke:black;stroke-width:38.51px;"/>
        </g>
        <g id="head" transform="matrix(0.0530692,0,0,0.0530692,484.829,554.469)">
            <path d="M801.232,576.87C812.735,427.07 720.584,321.983 512,325.389C303.416,328.794 213.714,428.031 222.768,576.87C231.411,718.95 399.57,823.274 510.888,823.274C622.206,823.274 790.339,718.729 801.232,576.87Z" style="fill:white;fill-rule:nonzero;stroke:black;stroke-width:38.51px;"/>
        </g>
        <g id="eyes" transform="matrix(0.0530692,0,0,0.0530692,484.829,554.469)">
            <path d="M610.499,644.289C610.499,667.401 629.205,686.137 652.28,686.137C675.355,686.137 694.061,667.401 694.061,644.289C694.061,621.177 675.355,602.441 652.28,602.441C629.205,602.441 610.499,621.177 610.499,644.289ZM329.939,644.289C329.939,667.614 348.817,686.523 372.105,686.523C395.392,686.523 414.271,667.614 414.271,644.289C414.271,620.964 395.393,602.056 372.105,602.056C348.817,602.056 329.939,620.964 329.939,644.289Z" style="fill-rule:nonzero;"/>
        </g>
        <g id="whiskers" transform="matrix(0.0530692,0,0,0.0530692,484.829,554.469)">
            <path d="M339.729,769.247L285.185,841.472M684.271,769.247L738.815,841.472M263.683,697.82L175.928,733.644M755.785,697.82L843.541,733.644" style="fill:none;fill-rule:nonzero;stroke:black;stroke-width:32px;stroke-linejoin:miter;"/>
        </g>
        <g id="nose" transform="matrix(0.0530692,0,0,0.0530692,484.829,554.469)">
            <path d="M512.001,713.09C466.137,713.09 436.871,744.935 437.859,784.191C438.93,826.703 470.328,855.294 512.001,855.294C553.674,855.294 586.052,822.298 586.142,784.191C586.236,744.922 557.865,713.09 512.001,713.09Z" style="fill:white;fill-rule:nonzero;stroke:black;stroke-width:28px;"/>
        </g>
    </g>
</svg>
