<?xml version="1.0" encoding="UTF-8" standalone="no"?>
<!DOCTYPE svg PUBLIC "-//W3C//DTD SVG 1.1//EN" "http://www.w3.org/Graphics/SVG/1.1/DTD/svg11.dtd">
<svg width="100%" height="100%" viewBox="0 0 50 50" version="1.1" xmlns="http://www.w3.org/2000/svg" xmlns:xlink="http://www.w3.org/1999/xlink" xml:space="preserve" xmlns:serif="http://www.serif.com/" style="fill-rule:evenodd;clip-rule:evenodd;stroke-linecap:round;stroke-linejoin:round;">
    <g id="Page-1">
    </g>
    <g id="Layer-1" serif:id="Layer 1" transform="matrix(1,0,0,1,-487,-559.72)">
        <g id="white-border" transform="matrix(0.0511329,0,0,0.0511329,485.82,555.573)">
            <path d="M167.039,270.787C166.091,270.785 165.145,270.791 164.201,270.809C159.886,270.887 155.612,271.168 151.389,271.655C117.603,275.546 87.173,293.518 68.518,324.928C50.238,355.705 45.74,389.594 55.057,420.996C64.373,452.398 86.942,480.928 120.354,503.53C120.555,503.666 120.76,503.797 120.969,503.922C149.623,521.2 178.15,532.854 208.711,538.877C207.965,551.491 207.986,564.449 208.793,577.721C211.233,617.83 225.4,654.758 246.889,687.393L169.881,718.83C161.575,722.09 157.539,731.513 160.911,739.774C164.283,748.034 173.76,751.942 181.975,748.457L266.672,713.881C282.379,732.608 300.425,749.564 319.793,764.451C320.533,765.02 321.283,765.574 322.027,766.137L272.416,831.828C266.962,838.876 268.315,849.021 275.427,854.392C282.539,859.762 292.667,858.288 297.953,851.114L348.34,784.395C376.026,801.929 405.415,815.599 434.412,824.647C449.294,851.927 478.382,869.293 512,869.293C545.938,869.293 575.043,850.606 589.801,823.856C618.508,814.643 647.554,800.924 674.949,783.453L726.047,851.114C731.333,858.288 741.461,859.762 748.573,854.392C755.685,849.021 757.038,838.876 751.584,831.828L701.223,765.143C701.557,764.889 701.895,764.642 702.229,764.387C721.366,749.738 739.254,733.101 754.932,714.752L837.494,748.457C845.708,751.942 855.185,748.034 858.558,739.774C861.93,731.513 857.894,722.09 849.588,718.83L775.049,688.403C797.221,655.573 812.087,618.369 815.191,577.942C816.217,564.589 816.421,551.516 815.83,538.766C846.186,532.712 874.547,521.098 903.031,503.922C903.24,503.797 903.445,503.666 903.647,503.53C937.059,480.928 959.627,452.398 968.943,420.996C978.26,389.594 973.762,355.705 955.482,324.928C936.827,293.518 906.397,275.546 872.611,271.655C868.388,271.168 864.114,270.887 859.799,270.809C829.591,270.264 797.358,279.633 766.367,297.524C743.57,310.684 723.015,330.838 706.93,352.828C661.933,327.077 603.385,312.578 531.451,311.389C524.999,311.282 518.439,311.282 511.771,311.391C431.583,312.7 367.389,327.9 318.9,355.383C318.781,355.192 318.658,355.004 318.529,354.819C302.239,332.055 281.118,311.082 257.633,297.524C227.61,280.192 196.422,270.859 167.039,270.787L167.039,270.787Z" style="fill:none;fill-rule:nonzero;stroke:white;stroke-width:48.14px;"/>
        </g>
        <g id="ears" transform="matrix(0.0511329,0,0,0.0511329,485.82,555.573)">
            <path d="M716.856,362.965C732.147,341.597 752.218,321.856 773.366,309.647C840.03,271.163 910.392,276.426 943.446,332.078C976.541,387.799 958.432,449.566 895.802,491.933C863.846,511.201 832.869,522.856 798.573,527.477M307.144,362.965C291.853,341.597 271.782,321.856 250.634,309.647C183.971,271.163 113.608,276.426 80.554,332.078C47.459,387.799 65.568,449.566 128.198,491.933C160.154,511.201 191.131,522.856 225.427,527.477" style="fill:white;fill-rule:nonzero;stroke:black;stroke-width:38.51px;"/>
        </g>
        <g id="head" transform="matrix(0.0511329,0,0,0.0511329,485.82,555.573)">
            <path d="M801.232,576.87C812.735,427.07 720.584,321.983 512,325.389C303.416,328.794 213.714,428.031 222.768,576.87C231.411,718.95 399.57,823.274 510.888,823.274C622.206,823.274 790.339,718.729 801.232,576.87Z" style="fill:white;fill-rule:nonzero;stroke:black;stroke-width:38.51px;"/>
        </g>
        <g id="eyes" transform="matrix(0.0511329,0,0,0.0511329,485.82,555.573)">
            <path d="M610.499,644.289C610.499,667.401 629.205,686.137 652.28,686.137C675.355,686.137 694.061,667.401 694.061,644.289C694.061,621.177 675.355,602.441 652.28,602.441C629.205,602.441 610.499,621.177 610.499,644.289ZM329.939,644.289C329.939,667.614 348.817,686.523 372.105,686.523C395.392,686.523 414.271,667.614 414.271,644.289C414.271,620.964 395.393,602.056 372.105,602.056C348.817,602.056 329.939,620.964 329.939,644.289Z" style="fill-rule:nonzero;"/>
        </g>
        <g id="whiskers" transform="matrix(0.0511329,0,0,0.0511329,485.82,555.573)">
            <path d="M339.729,769.247L285.185,841.472M684.271,769.247L738.815,841.472M263.683,697.82L175.928,733.644M755.785,697.82L843.541,733.644" style="fill:none;fill-rule:nonzero;stroke:black;stroke-width:32px;stroke-linejoin:miter;"/>
        </g>
        <g id="nose" transform="matrix(0.0511329,0,0,0.0511329,485.82,555.573)">
            <path d="M512.001,713.09C466.137,713.09 436.871,744.935 437.859,784.191C438.93,826.703 470.328,855.294 512.001,855.294C553.674,855.294 586.052,822.298 586.142,784.191C586.236,744.922 557.865,713.09 512.001,713.09Z" style="fill:white;fill-rule:nonzero;stroke:black;stroke-width:28px;"/>
        </g>
    </g>
</svg>
